<svg xmlns="http://www.w3.org/2000/svg" width="37.73" height="37.73" viewBox="0 0 37.73 37.73">
  <path d="M40.43,25a15.41,15.41,0,0,0-.77-4.79l3.26-1.08a18.84,18.84,0,0,0-4.63-7.49l-2.42,2.44A15.41,15.41,0,0,0,32,11.23l1.55-3.07a18.76,18.76,0,0,0-8.55-2h0V9.56h0a15.31,15.31,0,0,0-4.76.77L19.12,7.07a18.93,18.93,0,0,0-7.49,4.62l2.43,2.42A15.64,15.64,0,0,0,11.24,18L8.17,16.47a18.94,18.94,0,0,0-2,8.53v0H9.57a15.37,15.37,0,0,0,.76,4.77L7.07,30.86a18.9,18.9,0,0,0,4.61,7.5l2.42-2.43A15.46,15.46,0,0,0,18,38.75l-1.57,3.07a18.93,18.93,0,0,0,8.55,2h0V40.44a15.62,15.62,0,0,0,4.77-.77l1.07,3.27a18.9,18.9,0,0,0,7.5-4.61l-2.43-2.42A15.45,15.45,0,0,0,38.75,32l3.06,1.56A18.82,18.82,0,0,0,43.87,25v-.06Z" transform="translate(-6.13 -6.13)" fill="#466688"/>
  <circle cx="18.87" cy="18.87" r="4.8" fill="#fff"/>
  <path d="M25,35.29A10.29,10.29,0,1,1,35.29,25,10.31,10.31,0,0,1,25,35.29Zm0-19.44A9.15,9.15,0,1,0,34.15,25,9.17,9.17,0,0,0,25,15.85Z" transform="translate(-6.13 -6.13)" fill="#fff"/>
</svg>
