<?xml version="1.0" encoding="utf-8"?>
<!-- Generator: Adobe Illustrator 25.4.1, SVG Export Plug-In . SVG Version: 6.00 Build 0)  -->
<svg version="1.1" id="Layer_1" xmlns="http://www.w3.org/2000/svg" xmlns:xlink="http://www.w3.org/1999/xlink" x="0px" y="0px"
	 viewBox="0 0 32 32" style="enable-background:new 0 0 32 32;" xml:space="preserve">
<style type="text/css">
	.st0{fill:none;stroke:#000000;stroke-width:0.15;stroke-miterlimit:10;}
	.st1{fill:#B7B6B6;stroke:#000000;stroke-width:0.15;stroke-miterlimit:10;}
	.st2{fill:#E3E3E3;stroke:#000000;stroke-width:0.15;stroke-miterlimit:10;}
	.st3{fill:#2F5598;}
	.st4{fill:none;stroke:#020203;stroke-width:0.2;stroke-miterlimit:10;}
	.st5{fill:#D4D4D4;stroke:#000000;stroke-width:0.2;stroke-miterlimit:10;}
	.st6{fill:#277886;}
</style>
<line class="st0" x1="4.4" y1="7.8" x2="27.7" y2="7.8"/>
<line class="st0" x1="4.4" y1="4.1" x2="4.4" y2="28"/>
<line class="st0" x1="27.7" y1="4.1" x2="27.7" y2="28"/>
<path class="st0" d="M27.7,11.4"/>
<path class="st0" d="M4.4,11.4"/>
<path class="st0" d="M27.7,14.9"/>
<path class="st0" d="M4.4,14.9"/>
<path class="st0" d="M27.7,18.5"/>
<path class="st0" d="M4.4,18.5"/>
<path class="st0" d="M27.7,22"/>
<path class="st0" d="M4.4,22"/>
<line class="st0" x1="4.4" y1="28" x2="27.7" y2="28"/>
<rect x="4.4" y="4" class="st1" width="23.3" height="3.8"/>
<path class="st0" d="M13.1,28"/>
<path class="st0" d="M13.1,4.1"/>
<path class="st0" d="M18.9,28"/>
<path class="st0" d="M18.9,4.1"/>
<path class="st0" d="M7.3,28"/>
<path class="st0" d="M7.3,4.1"/>
<path class="st0" d="M24.8,28"/>
<path class="st0" d="M24.8,4.1"/>
<rect x="4.4" y="10.8" class="st2" width="23.3" height="2.9"/>
<rect x="4.4" y="16.5" class="st2" width="23.3" height="2.9"/>
<rect x="4.4" y="22.3" class="st2" width="23.3" height="2.9"/>
<line class="st0" x1="10.2" y1="4.1" x2="10.2" y2="28"/>
<line class="st0" x1="16" y1="4.1" x2="16" y2="28"/>
<line class="st0" x1="21.8" y1="4.1" x2="21.8" y2="28"/>
<g>
	<path class="st3" d="M-66.5,43.9c0,0-2.1,1.6-3.1,0.6c-0.7-0.7-1.9-1-2.9,0c-0.9,0.9-2.6,0.4-2.9,0c-1-1-1.7-0.6-1.7-0.6v11.9
		c0,0,0,0.2,0,0.3c0,2.2,2.4,3.9,5.4,3.9s5.4-1.7,5.4-3.9c0-0.1,0-0.3,0-0.3V43.9H-66.5z"/>
</g>
<path class="st4" d="M-66.4,34.8h-10.7v21l0,0c0,0,0,0.2,0,0.3c0,2.2,2.4,3.9,5.4,3.9s5.4-1.7,5.4-3.9c0-0.1,0-0.3,0-0.3l0,0
	L-66.4,34.8L-66.4,34.8z"/>
<rect x="-76.3" y="26.8" class="st5" width="9.2" height="4.5"/>
<g>
	<path class="st3" d="M-42.9,50.3l-0.1,5.3c0,0,0,0.2,0,0.3c0,2.2-2.4,4-5.3,4s-5.4-1.7-5.4-3.9c0-0.1,0-0.3,0-0.3v-7.3
		c0,0,0.3-1,2.2,0c0.4,0.2,2,0.9,2.9,0c1-1,2.1-0.8,2.9,0l2.8,1"/>
</g>
<g>
	<path class="st4" d="M-43,34.6h-10.7v21l0,0c0,0,0,0.2,0,0.3c0,2.2,2.4,3.9,5.4,3.9s5.4-1.7,5.4-3.9c0-0.1,0-0.3,0-0.3l0,0v-21H-43
		z"/>
	<rect x="-52.9" y="26.8" class="st5" width="9.2" height="4.5"/>
	<path class="st5" d="M-42.1,34.6h-12.6c-0.9,0-1.7-0.7-1.7-1.7v-0.2c0-0.9,0.7-1.7,1.7-1.7H-42c0.9,0,1.7,0.7,1.7,1.7v0.2
		C-40.4,33.8-41.1,34.6-42.1,34.6z"/>
</g>
<path class="st6" d="M-48.2,49.3"/>
<path class="st5" d="M-65.4,34.8H-78c-0.9,0-1.7-0.7-1.7-1.7v-0.2c0-0.9,0.7-1.7,1.7-1.7h12.7c0.9,0,1.7,0.7,1.7,1.7v0.2
	C-63.7,34.1-64.4,34.8-65.4,34.8z"/>
<text transform="matrix(1 0 0 1 -24.4328 48.9373)" class="st3" style="font-family:'ArialMT'; font-size:12px;">Sample Submission</text>
</svg>
