<svg xmlns="http://www.w3.org/2000/svg" width="50" height="50" viewBox="0 0 50 50">
  <line x1="38" y1="24" x2="42" y2="13" fill="none" stroke="#1d1d1b" stroke-miterlimit="10" stroke-width="0.25"/>
  <line x1="29" y1="16" x2="42" y2="13" fill="none" stroke="#1d1d1b" stroke-miterlimit="10" stroke-width="0.25"/>
  <line x1="33.92" y1="43.3" x2="33.61" y2="34.77" fill="none" stroke="#1d1d1b" stroke-miterlimit="10" stroke-width="0.25"/>
  <circle cx="33.92" cy="43.3" r="1.83" fill="#cac9c9" stroke="#1d1d1b" stroke-miterlimit="10" stroke-width="0.25"/>
  <line x1="6.79" y1="14.77" x2="17.17" y2="15.51" fill="none" stroke="#1d1d1b" stroke-miterlimit="10" stroke-width="0.25"/>
  <line x1="16.34" y1="5.12" x2="17.99" y2="16.23" fill="none" stroke="#1d1d1b" stroke-miterlimit="10" stroke-width="0.25"/>
  <line x1="6.79" y1="14.77" x2="5.8" y2="23.7" fill="#94cba0" stroke="#1d1d1b" stroke-miterlimit="10" stroke-width="0.25"/>
  <path d="M16.87,14.7" transform="translate(0 0)" fill="#1d1d1b" stroke="#1d1d1b" stroke-miterlimit="10" stroke-width="0.25"/>
  <path d="M26.67,26.23" transform="translate(0 0)" fill="#1d1d1b" stroke="#1d1d1b" stroke-miterlimit="10" stroke-width="0.25"/>
  <path d="M40,22.64" transform="translate(0 0)" fill="#1d1d1b" stroke="#1d1d1b" stroke-miterlimit="10" stroke-width="0.25"/>
  <line x1="18.28" y1="16.02" x2="26.82" y2="26.64" fill="none" stroke="#1d1d1b" stroke-miterlimit="10" stroke-width="0.25"/>
  <line x1="38" y1="24" x2="27" y2="26" fill="none" stroke="#1d1d1b" stroke-miterlimit="10" stroke-width="0.25"/>
  <line x1="16.43" y1="25.9" x2="26.82" y2="26.64" fill="none" stroke="#1d1d1b" stroke-miterlimit="10" stroke-width="0.25"/>
  <line x1="23.26" y1="34.39" x2="26.82" y2="26.64" fill="none" stroke="#1d1d1b" stroke-miterlimit="10" stroke-width="0.25"/>
  <line x1="33.65" y1="35.13" x2="26.82" y2="26.64" fill="none" stroke="#1d1d1b" stroke-miterlimit="10" stroke-width="0.25"/>
  <circle cx="16.43" cy="25.9" r="1.83" fill="#cac9c9" stroke="#1d1d1b" stroke-miterlimit="10" stroke-width="0.25"/>
  <circle cx="23.26" cy="34.39" r="1.83" fill="#cac9c9" stroke="#1d1d1b" stroke-miterlimit="10" stroke-width="0.25"/>
  <line x1="44.15" y1="31.23" x2="32.84" y2="35.43" fill="none" stroke="#1d1d1b" stroke-miterlimit="10" stroke-width="0.25"/>
  <line x1="38" y1="24" x2="43.64" y2="32.34" fill="none" stroke="#1d1d1b" stroke-miterlimit="10" stroke-width="0.25"/>
  <circle cx="38.04" cy="23.64" r="1.83" fill="#cac9c9" stroke="#1d1d1b" stroke-miterlimit="10" stroke-width="0.25"/>
  <circle cx="33.65" cy="35.13" r="3.05" fill="#94cba0" stroke="#1d1d1b" stroke-miterlimit="10" stroke-width="0.25"/>
  <circle cx="43.34" cy="31.53" r="1.83" fill="#cac9c9" stroke="#1d1d1b" stroke-miterlimit="10" stroke-width="0.25"/>
  <line x1="29.43" y1="15.1" x2="27.07" y2="26.08" fill="none" stroke="#1d1d1b" stroke-miterlimit="10" stroke-width="0.25"/>
  <circle cx="29.17" cy="15.65" r="1.83" fill="#cac9c9" stroke="#1d1d1b" stroke-miterlimit="10" stroke-width="0.25"/>
  <circle cx="27.27" cy="26.01" r="4.11" fill="#466688" stroke="#1d1d1b" stroke-miterlimit="10" stroke-width="0.25"/>
  <circle cx="6.79" cy="14.77" r="1.83" fill="#cac9c9" stroke="#1d1d1b" stroke-miterlimit="10" stroke-width="0.25"/>
  <circle cx="16.3" cy="5.73" r="1.83" fill="#cac9c9" stroke="#1d1d1b" stroke-miterlimit="10" stroke-width="0.25"/>
  <circle cx="6.05" cy="25.16" r="3.05" fill="#ffd900" stroke="#1d1d1b" stroke-miterlimit="10" stroke-width="0.25"/>
  <path d="M15.24,25.85" transform="translate(0 0)" fill="#94cba0" stroke="#1d1d1b" stroke-miterlimit="10" stroke-width="0.25"/>
  <line x1="24.9" y1="8.23" x2="18.19" y2="16.05" fill="none" stroke="#1d1d1b" stroke-miterlimit="10" stroke-width="0.25"/>
  <circle cx="24.56" cy="8.17" r="1.83" fill="#cac9c9" stroke="#1d1d1b" stroke-miterlimit="10" stroke-width="0.25"/>
  <circle cx="18.22" cy="15.92" r="3.14" fill="#b93418" stroke="#1d1d1b" stroke-miterlimit="10" stroke-width="0.25"/>
  <rect width="50" height="50" fill="none"/>
  <circle cx="41.5" cy="13.5" r="3.5" fill="#a97cb5" stroke="#1d1d1b" stroke-miterlimit="10" stroke-width="0.25"/>
</svg>
