<?xml version="1.0" encoding="utf-8"?>
<!-- Generator: Adobe Illustrator 25.4.1, SVG Export Plug-In . SVG Version: 6.00 Build 0)  -->
<svg version="1.1" id="Layer_1" xmlns="http://www.w3.org/2000/svg" xmlns:xlink="http://www.w3.org/1999/xlink" x="0px" y="0px"
	 viewBox="0 0 16 16" style="enable-background:new 0 0 16 16;" xml:space="preserve">
<style type="text/css">
	.st0{fill:#D03B16;}
	.st1{fill:none;stroke:#020203;stroke-width:0.2;stroke-miterlimit:10;}
	.st2{fill:#D4D4D4;stroke:#000000;stroke-width:0.2;stroke-miterlimit:10;}
	.st3{fill:#2F5598;}
	.st4{fill:#277886;}
</style>
<g>
	<g>
		<path class="st0" d="M5.9,8.2c0,0-0.9,0.7-1.3,0.2C4.4,8.2,3.9,8,3.5,8.4c-0.4,0.4-1.1,0.2-1.2,0C1.9,8,1.6,8.2,1.6,8.2v4.9
			c0,0,0,0.1,0,0.1c0,0.9,1,1.6,2.2,1.6S6,14.1,6,13.2c0,0,0-0.1,0-0.1L5.9,8.2L5.9,8.2z"/>
	</g>
	<path class="st1" d="M6,4.5H1.6v8.6l0,0c0,0,0,0.1,0,0.1c0,0.9,1,1.6,2.2,1.6S6,14.1,6,13.2c0,0,0-0.1,0-0.1l0,0L6,4.5L6,4.5z"/>
	<rect x="1.9" y="1.2" class="st2" width="3.8" height="1.8"/>
	<g>
		<path class="st3" d="M14.4,10.8l0,2.2c0,0,0,0.1,0,0.1c0,0.9-1,1.6-2.2,1.6S10,14,10,13.1c0,0,0-0.1,0-0.1v-3c0,0,0.1-0.4,0.9,0
			c0.2,0.1,0.8,0.4,1.2,0c0.4-0.4,0.9-0.3,1.2,0l1.1,0.4"/>
	</g>
	<g>
		<path class="st1" d="M14.4,4.4H10V13l0,0c0,0,0,0.1,0,0.1c0,0.9,1,1.6,2.2,1.6s2.2-0.7,2.2-1.6c0,0,0-0.1,0-0.1l0,0L14.4,4.4
			L14.4,4.4z"/>
		<rect x="10.3" y="1.2" class="st2" width="3.8" height="1.8"/>
		<path class="st2" d="M14.8,4.4H9.6c-0.4,0-0.7-0.3-0.7-0.7V3.6c0-0.4,0.3-0.7,0.7-0.7h5.2c0.4,0,0.7,0.3,0.7,0.7v0.1
			C15.5,4.1,15.2,4.4,14.8,4.4z"/>
	</g>
	<path class="st4" d="M12.3,10.4"/>
	<path class="st2" d="M6.3,4.5H1.2c-0.4,0-0.7-0.3-0.7-0.7V3.7C0.5,3.4,0.8,3,1.2,3h5.2c0.4,0,0.7,0.3,0.7,0.7v0.1
		C7,4.2,6.7,4.5,6.3,4.5z"/>
</g>
</svg>
