<?xml version="1.0" encoding="utf-8"?>
<!-- Generator: Adobe Illustrator 25.4.1, SVG Export Plug-In . SVG Version: 6.00 Build 0)  -->
<svg version="1.1" id="Layer_1" xmlns="http://www.w3.org/2000/svg" xmlns:xlink="http://www.w3.org/1999/xlink" x="0px" y="0px"
	 viewBox="0 0 32 32" style="enable-background:new 0 0 32 32;" xml:space="preserve">
<style type="text/css">
	.st0{fill:#D03B16;}
	.st1{fill:none;stroke:#020203;stroke-width:0.2;stroke-miterlimit:10;}
	.st2{fill:#D4D4D4;stroke:#000000;stroke-width:0.2;stroke-miterlimit:10;}
	.st3{fill:#2F5598;}
	.st4{fill:#277886;}
</style>
<g>
	<g>
		<path class="st0" d="M12.2,16.4c0,0-1.6,1.2-2.3,0.4c-0.5-0.5-1.4-0.7-2.2,0c-0.7,0.7-1.9,0.3-2.2,0c-0.7-0.7-1.3-0.4-1.3-0.4v8.9
			c0,0,0,0.1,0,0.2c0,1.6,1.8,2.9,4,2.9s4-1.3,4-2.9c0-0.1,0-0.2,0-0.2v-8.9H12.2z"/>
	</g>
	<path class="st1" d="M12.3,9.6h-8v15.6l0,0c0,0,0,0.1,0,0.2c0,1.6,1.8,2.9,4,2.9s4-1.3,4-2.9c0-0.1,0-0.2,0-0.2l0,0L12.3,9.6
		L12.3,9.6z"/>
	<rect x="4.9" y="3.7" class="st2" width="6.9" height="3.3"/>
	<g>
		<path class="st3" d="M27.7,21.2l-0.1,3.9c0,0,0,0.1,0,0.2c0,1.6-1.8,3-3.9,3s-4-1.3-4-2.9c0-0.1,0-0.2,0-0.2v-5.4
			c0,0,0.2-0.7,1.6,0c0.3,0.1,1.5,0.7,2.2,0c0.7-0.7,1.6-0.6,2.2,0l2.1,0.7"/>
	</g>
	<g>
		<path class="st1" d="M27.6,9.5h-8v15.6l0,0c0,0,0,0.1,0,0.2c0,1.6,1.8,2.9,4,2.9s4-1.3,4-2.9c0-0.1,0-0.2,0-0.2l0,0L27.6,9.5
			L27.6,9.5z"/>
		<rect x="20.3" y="3.7" class="st2" width="6.9" height="3.3"/>
		<path class="st2" d="M28.3,9.5H19c-0.7,0-1.3-0.5-1.3-1.3V8.1c0-0.7,0.5-1.3,1.3-1.3h9.5c0.7,0,1.3,0.5,1.3,1.3v0.1
			C29.6,8.9,29.1,9.5,28.3,9.5z"/>
	</g>
	<path class="st4" d="M23.8,20.4"/>
	<path class="st2" d="M13,9.6H3.6c-0.7,0-1.3-0.5-1.3-1.3V8.2C2.3,7.6,2.8,7,3.6,7H13c0.7,0,1.3,0.5,1.3,1.3v0.1
		C14.2,9.1,13.7,9.6,13,9.6z"/>
</g>
</svg>
