<svg xmlns="http://www.w3.org/2000/svg" width="42.6" height="42.57" viewBox="0 0 42.6 42.57">
  <g>
    <path d="M19.19,14.87" transform="translate(-3.7 -3.76)" fill="#b1b1b1"/>
    <path d="M21.57,12.49" transform="translate(-3.7 -3.76)" fill="#b1b1b1"/>
    <path d="M28.66,5.61c.12-.61-.45-1.17-1.21-1.4a8.36,8.36,0,0,0-5.75.13c-.9.36-1.11.17-1.07,1.1l-.18.18c-2.84,1.08-4.63,3.94-4.63,7.43v.14a3.26,3.26,0,0,0-.71,3.23c.12.23.4,0,.43.27,1.28-.22,2.42.52,3.65.54,3.73.05,7.46,0,11.2,0,1.09,0,2-.9,3.24-.46.22.08.75-.37.69-.93s0-.85,0-1.26.25-1.22-.56-1.39l-.14-.15a8.11,8.11,0,0,0-4.76-7.43Z" transform="translate(-3.7 -3.76)" fill="#b1b1b1"/>
  </g>
  <path d="M15.34,32a18.67,18.67,0,0,0-6.85,1.7c-2.11,1-2.16,3.31-2.77,5.18s-1,4-1.71,5.87c-.45,1.24-.21,1.53,1.11,1.53q19.89,0,39.77,0c1.39,0,1.5-.12,1.12-1.39-.87-2.9-1.8-5.79-2.65-8.69-.75-2.57-2.69-3.36-5.47-3.78a41.73,41.73,0,0,1-6.57-1.3,2.35,2.35,0,0,1-1.56-2.34,6.49,6.49,0,0,0-.13-2.24" transform="translate(-3.7 -3.76)" fill="none" stroke="#000" stroke-linecap="round" stroke-linejoin="round" stroke-width="0.2"/>
  <path d="M15.9,13.47c.24.14.62.23.68.42.4,1.38,1.47,1.27,2.54,1.26,3.88,0,7.75,0,11.63,0,.73,0,1.37.06,1.71-.83a1.14,1.14,0,0,1,1.23-.85c.81.18.52.88.55,1.4s0,.84,0,1.25c.06.57-.47,1-.69.94-1.2-.44-2.15.46-3.24.46-3.74,0-7.47,0-11.2,0-1.23,0-2.37-.76-3.65-.54,0-.26-.31,0-.44-.27a3.29,3.29,0,0,1,.72-3.23" transform="translate(-3.7 -3.76)" fill="none" stroke="#000" stroke-linecap="round" stroke-linejoin="round" stroke-width="0.2"/>
  <path d="M10.44,46c0-1.68,0-3.37,0-5.05s.71-2.29,2.23-2.27c8.08.07,16.15,0,24.23,0,1.85,0,2.37.51,2.38,2.38,0,1.64,0,3.27,0,4.91" transform="translate(-3.7 -3.76)" fill="none" stroke="#000" stroke-linecap="round" stroke-linejoin="round" stroke-width="0.2"/>
  <path d="M18.84,31a11.48,11.48,0,0,0,11.49,0" transform="translate(-3.7 -3.76)" fill="none" stroke="#000" stroke-linecap="round" stroke-linejoin="round" stroke-width="0.2"/>
  <path d="M16,17.25c0,1.87.14,3.64,1.49,5.23.66.76.68,2.1,1.47,2.87,1.82,1.76,4,3.39,6.55,2.86a7.26,7.26,0,0,0,5.89-4.95,1.73,1.73,0,0,1,.4-.86c1.37-1.44,1.43-3.3,1.43-5.15" transform="translate(-3.7 -3.76)" fill="none" stroke="#000" stroke-linecap="round" stroke-linejoin="round" stroke-width="0.2"/>
  <path d="M27.39,12.76a.43.43,0,0,0,.42-.41c.39-2.14.38-4.32.79-6.46.12-.61-.45-1.17-1.21-1.4a8.36,8.36,0,0,0-5.75.13c-.9.36-.94.78-.9,1.71a44.78,44.78,0,0,0,.77,6.43" transform="translate(-3.7 -3.76)" fill="none" stroke="#000" stroke-linecap="round" stroke-linejoin="round" stroke-width="0.2"/>
  <path d="M20.39,5.9C17.54,7,15.76,9.84,15.76,13.32" transform="translate(-3.7 -3.76)" fill="none" stroke="#000" stroke-linecap="round" stroke-linejoin="round" stroke-width="0.2"/>
  <path d="M28.79,5.9a8.1,8.1,0,0,1,4.76,7.42" transform="translate(-3.7 -3.76)" fill="none" stroke="#000" stroke-linecap="round" stroke-linejoin="round" stroke-width="0.2"/>
  <path d="M33.69,32v6.58" transform="translate(-3.7 -3.76)" fill="none" stroke="#000" stroke-linecap="round" stroke-linejoin="round" stroke-width="0.2"/>
  <path d="M19.83,26.49a4.85,4.85,0,0,0-.14,1.82,3,3,0,0,1-2.39,2.94c-1.82.51-1.82.51-1.82,2.38v4.9" transform="translate(-3.7 -3.76)" fill="none" stroke="#000" stroke-linecap="round" stroke-linejoin="round" stroke-width="0.2"/>
  <path d="M37.47,32.65v5.88" transform="translate(-3.7 -3.76)" fill="none" stroke="#000" stroke-linecap="round" stroke-linejoin="round" stroke-width="0.2"/>
  <path d="M11.56,32.93l.14,5.6" transform="translate(-3.7 -3.76)" fill="none" stroke="#000" stroke-linecap="round" stroke-linejoin="round" stroke-width="0.2"/>
  <circle cx="10.44" cy="45.81" r="1.4" fill="none" stroke="#000" stroke-linecap="round" stroke-linejoin="round" stroke-width="0.2"/>
  <circle cx="32.01" cy="45.81" r="1.4" fill="none" stroke="#000" stroke-linecap="round" stroke-linejoin="round" stroke-width="0.2"/>
</svg>
